<svg width="101" height="15" viewBox="0 0 101 15" fill="none" xmlns="http://www.w3.org/2000/svg">
<path d="M0.118608 11.5V1.31818H3.74787C4.54001 1.31818 5.19626 1.46236 5.71662 1.75071C6.23698 2.03906 6.62642 2.43347 6.88494 2.93395C7.14347 3.43111 7.27273 3.99124 7.27273 4.61435C7.27273 5.24077 7.14181 5.80421 6.87997 6.30469C6.62145 6.80185 6.23035 7.19626 5.70668 7.48793C5.18632 7.77628 4.53172 7.92045 3.7429 7.92045H1.24716V6.6179H3.60369C4.10417 6.6179 4.51018 6.53172 4.82173 6.35938C5.13329 6.18371 5.36198 5.94508 5.50781 5.64347C5.65365 5.34186 5.72656 4.99882 5.72656 4.61435C5.72656 4.22988 5.65365 3.88849 5.50781 3.5902C5.36198 3.2919 5.13163 3.05824 4.81676 2.8892C4.50521 2.72017 4.09422 2.63565 3.58381 2.63565H1.65483V11.5H0.118608ZM8.95437 11.5V3.86364H10.3912V5.0767H10.4707C10.6099 4.66572 10.8552 4.34257 11.2065 4.10724C11.5611 3.86861 11.9622 3.74929 12.4096 3.74929C12.5024 3.74929 12.6118 3.7526 12.7377 3.75923C12.867 3.76586 12.9681 3.77415 13.041 3.78409V5.20597C12.9814 5.18939 12.8753 5.17116 12.7228 5.15128C12.5704 5.12808 12.4179 5.11648 12.2654 5.11648C11.9141 5.11648 11.6009 5.19105 11.3258 5.3402C11.054 5.48603 10.8386 5.68987 10.6795 5.9517C10.5204 6.21023 10.4409 6.50521 10.4409 6.83665V11.5H8.95437ZM17.2706 11.6541C16.5547 11.6541 15.9299 11.4901 15.3963 11.1619C14.8627 10.8338 14.4484 10.3748 14.1534 9.7848C13.8584 9.19484 13.7109 8.50544 13.7109 7.71662C13.7109 6.92448 13.8584 6.23177 14.1534 5.63849C14.4484 5.04522 14.8627 4.58452 15.3963 4.25639C15.9299 3.92827 16.5547 3.7642 17.2706 3.7642C17.9865 3.7642 18.6113 3.92827 19.1449 4.25639C19.6785 4.58452 20.0928 5.04522 20.3878 5.63849C20.6828 6.23177 20.8303 6.92448 20.8303 7.71662C20.8303 8.50544 20.6828 9.19484 20.3878 9.7848C20.0928 10.3748 19.6785 10.8338 19.1449 11.1619C18.6113 11.4901 17.9865 11.6541 17.2706 11.6541ZM17.2756 10.4062C17.7396 10.4062 18.1241 10.2836 18.429 10.0384C18.7339 9.79309 18.9593 9.46662 19.1051 9.05895C19.2543 8.65128 19.3288 8.20218 19.3288 7.71165C19.3288 7.22443 19.2543 6.77699 19.1051 6.36932C18.9593 5.95833 18.7339 5.62855 18.429 5.37997C18.1241 5.13139 17.7396 5.0071 17.2756 5.0071C16.8082 5.0071 16.4205 5.13139 16.1122 5.37997C15.8073 5.62855 15.5803 5.95833 15.4311 6.36932C15.2853 6.77699 15.2124 7.22443 15.2124 7.71165C15.2124 8.20218 15.2853 8.65128 15.4311 9.05895C15.5803 9.46662 15.8073 9.79309 16.1122 10.0384C16.4205 10.2836 16.8082 10.4062 17.2756 10.4062ZM22.4895 14.3636V3.86364H23.9412V5.10156H24.0655C24.1517 4.94247 24.276 4.75852 24.4384 4.54972C24.6008 4.34091 24.8262 4.15862 25.1145 4.00284C25.4029 3.84375 25.784 3.7642 26.258 3.7642C26.8745 3.7642 27.4247 3.91998 27.9086 4.23153C28.3925 4.54309 28.772 4.99219 29.0471 5.57884C29.3255 6.16548 29.4647 6.87145 29.4647 7.69673C29.4647 8.52202 29.3271 9.22964 29.052 9.8196C28.7769 10.4062 28.3991 10.8587 27.9185 11.1768C27.4379 11.4917 26.8894 11.6491 26.2729 11.6491C25.8089 11.6491 25.4294 11.5713 25.1344 11.4155C24.8427 11.2597 24.6141 11.0774 24.4483 10.8686C24.2826 10.6598 24.155 10.4742 24.0655 10.3118H23.976V14.3636H22.4895ZM23.9462 7.68182C23.9462 8.21875 24.0241 8.68939 24.1799 9.09375C24.3356 9.49811 24.561 9.81463 24.856 10.0433C25.151 10.2687 25.5123 10.3814 25.9398 10.3814C26.3839 10.3814 26.7551 10.2637 27.0534 10.0284C27.3517 9.78977 27.5771 9.46662 27.7296 9.05895C27.8854 8.65128 27.9632 8.19223 27.9632 7.68182C27.9632 7.17803 27.887 6.72562 27.7346 6.32457C27.5854 5.92353 27.36 5.60701 27.0584 5.375C26.7601 5.14299 26.3873 5.02699 25.9398 5.02699C25.5089 5.02699 25.1444 5.13802 24.8461 5.36009C24.5511 5.58215 24.3274 5.89205 24.1749 6.28977C24.0224 6.6875 23.9462 7.15151 23.9462 7.68182ZM34.4213 11.6541C33.669 11.6541 33.021 11.4934 32.4775 11.1719C31.9372 10.8471 31.5196 10.3913 31.2246 9.80469C30.9329 9.21473 30.7871 8.52367 30.7871 7.73153C30.7871 6.94934 30.9329 6.25994 31.2246 5.66335C31.5196 5.06676 31.9306 4.60109 32.4576 4.26633C32.9879 3.93158 33.6077 3.7642 34.3169 3.7642C34.7478 3.7642 35.1654 3.83546 35.5698 3.97798C35.9741 4.1205 36.3371 4.34422 36.6586 4.64915C36.9801 4.95407 37.2336 5.35014 37.4192 5.83736C37.6048 6.32126 37.6976 6.90956 37.6976 7.60227V8.12926H31.6273V7.01562H36.2409C36.2409 6.62453 36.1614 6.27817 36.0023 5.97656C35.8432 5.67164 35.6195 5.43134 35.3311 5.25568C35.0461 5.08002 34.7114 4.99219 34.3269 4.99219C33.9093 4.99219 33.5447 5.09493 33.2331 5.30043C32.9249 5.5026 32.6863 5.76776 32.5172 6.09588C32.3515 6.42069 32.2686 6.77367 32.2686 7.15483V8.02486C32.2686 8.53527 32.3581 8.96946 32.5371 9.32741C32.7194 9.68537 32.973 9.95881 33.2978 10.1477C33.6226 10.3333 34.0021 10.4261 34.4363 10.4261C34.718 10.4261 34.9748 10.3864 35.2069 10.3068C35.4389 10.224 35.6394 10.1013 35.8084 9.93892C35.9775 9.77652 36.1067 9.57599 36.1962 9.33736L37.6032 9.59091C37.4905 10.0052 37.2883 10.3681 36.9966 10.6797C36.7083 10.9879 36.3453 11.2282 35.9078 11.4006C35.4737 11.5696 34.9782 11.6541 34.4213 11.6541ZM39.3469 11.5V3.86364H40.7837V5.0767H40.8633C41.0025 4.66572 41.2478 4.34257 41.5991 4.10724C41.9537 3.86861 42.3548 3.74929 42.8022 3.74929C42.895 3.74929 43.0044 3.7526 43.1303 3.75923C43.2596 3.76586 43.3607 3.77415 43.4336 3.78409V5.20597C43.3739 5.18939 43.2679 5.17116 43.1154 5.15128C42.9629 5.12808 42.8105 5.11648 42.658 5.11648C42.3067 5.11648 41.9935 5.19105 41.7184 5.3402C41.4466 5.48603 41.2312 5.68987 41.0721 5.9517C40.913 6.21023 40.8335 6.50521 40.8335 6.83665V11.5H39.3469ZM48.7358 3.86364V5.05682H44.5646V3.86364H48.7358ZM45.6832 2.03409H47.1697V9.25781C47.1697 9.54616 47.2128 9.76326 47.299 9.90909C47.3852 10.0516 47.4962 10.1494 47.6321 10.2024C47.7713 10.2521 47.9221 10.277 48.0845 10.277C48.2038 10.277 48.3082 10.2687 48.3977 10.2521C48.4872 10.2356 48.5568 10.2223 48.6065 10.2124L48.875 11.4403C48.7888 11.4735 48.6662 11.5066 48.5071 11.5398C48.348 11.5762 48.1491 11.5961 47.9105 11.5994C47.5194 11.6061 47.1548 11.5365 46.8168 11.3906C46.4787 11.2448 46.2053 11.0194 45.9964 10.7145C45.7876 10.4096 45.6832 10.0268 45.6832 9.56605V2.03409ZM51.3198 14.3636C51.0977 14.3636 50.8955 14.3454 50.7132 14.3089C50.531 14.2758 50.3951 14.2393 50.3056 14.1996L50.6635 12.9815C50.9353 13.0545 51.1773 13.0859 51.3894 13.076C51.6015 13.0661 51.7888 12.9865 51.9512 12.8374C52.1169 12.6882 52.2627 12.4446 52.3887 12.1065L52.5726 11.5994L49.7786 3.86364H51.3695L53.3034 9.78977H53.383L55.3169 3.86364H56.9128L53.7658 12.5192C53.62 12.9169 53.4344 13.2533 53.209 13.5284C52.9836 13.8068 52.7151 14.0156 52.4036 14.1548C52.092 14.294 51.7308 14.3636 51.3198 14.3636ZM63.0241 1.31818L65.858 9.6108H65.9723L68.8061 1.31818H70.4666L66.8026 11.5H65.0277L61.3636 1.31818H63.0241ZM71.8176 11.5V3.86364H73.3042V11.5H71.8176ZM72.5684 2.68537C72.3098 2.68537 72.0878 2.59919 71.9022 2.42685C71.7199 2.25118 71.6287 2.04238 71.6287 1.80043C71.6287 1.55516 71.7199 1.34635 71.9022 1.17401C72.0878 0.998342 72.3098 0.910511 72.5684 0.910511C72.8269 0.910511 73.0473 0.998342 73.2296 1.17401C73.4152 1.34635 73.508 1.55516 73.508 1.80043C73.508 2.04238 73.4152 2.25118 73.2296 2.42685C73.0473 2.59919 72.8269 2.68537 72.5684 2.68537ZM78.5952 11.6541C77.8428 11.6541 77.1948 11.4934 76.6513 11.1719C76.111 10.8471 75.6934 10.3913 75.3984 9.80469C75.1068 9.21473 74.9609 8.52367 74.9609 7.73153C74.9609 6.94934 75.1068 6.25994 75.3984 5.66335C75.6934 5.06676 76.1044 4.60109 76.6314 4.26633C77.1617 3.93158 77.7815 3.7642 78.4908 3.7642C78.9216 3.7642 79.3393 3.83546 79.7436 3.97798C80.148 4.1205 80.5109 4.34422 80.8324 4.64915C81.1539 4.95407 81.4074 5.35014 81.593 5.83736C81.7786 6.32126 81.8714 6.90956 81.8714 7.60227V8.12926H75.8011V7.01562H80.4148C80.4148 6.62453 80.3352 6.27817 80.1761 5.97656C80.017 5.67164 79.7933 5.43134 79.505 5.25568C79.2199 5.08002 78.8852 4.99219 78.5007 4.99219C78.0831 4.99219 77.7185 5.09493 77.407 5.30043C77.0987 5.5026 76.8601 5.76776 76.6911 6.09588C76.5253 6.42069 76.4425 6.77367 76.4425 7.15483V8.02486C76.4425 8.53527 76.532 8.96946 76.7109 9.32741C76.8932 9.68537 77.1468 9.95881 77.4716 10.1477C77.7964 10.3333 78.1759 10.4261 78.6101 10.4261C78.8918 10.4261 79.1487 10.3864 79.3807 10.3068C79.6127 10.224 79.8132 10.1013 79.9822 9.93892C80.1513 9.77652 80.2805 9.57599 80.37 9.33736L81.777 9.59091C81.6643 10.0052 81.4621 10.3681 81.1705 10.6797C80.8821 10.9879 80.5192 11.2282 80.0817 11.4006C79.6475 11.5696 79.152 11.6541 78.5952 11.6541ZM85.1626 11.5L82.9155 3.86364H84.4517L85.9482 9.47159H86.0227L87.5241 3.86364H89.0604L90.5518 9.44673H90.6264L92.1129 3.86364H93.6491L91.407 11.5H89.8906L88.3395 5.98651H88.2251L86.674 11.5H85.1626ZM100.782 5.72798L99.4348 5.96662C99.3785 5.79427 99.289 5.63021 99.1664 5.47443C99.0471 5.31865 98.8846 5.19105 98.6792 5.09162C98.4737 4.99219 98.2168 4.94247 97.9086 4.94247C97.4876 4.94247 97.1363 5.03693 96.8546 5.22585C96.5729 5.41146 96.432 5.65175 96.432 5.94673C96.432 6.20194 96.5265 6.40743 96.7154 6.56321C96.9043 6.71899 97.2092 6.84659 97.6301 6.94602L98.8432 7.22443C99.5459 7.38684 100.07 7.63707 100.414 7.97514C100.759 8.31321 100.931 8.75237 100.931 9.29261C100.931 9.75 100.799 10.1577 100.534 10.5156C100.272 10.8703 99.9055 11.1487 99.4348 11.3509C98.9675 11.553 98.4256 11.6541 97.8091 11.6541C96.954 11.6541 96.2563 11.4718 95.7161 11.1072C95.1758 10.7393 94.8444 10.2173 94.7218 9.54119L96.1586 9.32244C96.248 9.69697 96.432 9.98035 96.7104 10.1726C96.9888 10.3615 97.3517 10.456 97.7992 10.456C98.2864 10.456 98.6758 10.3549 98.9675 10.1527C99.2592 9.94721 99.405 9.69697 99.405 9.40199C99.405 9.16335 99.3155 8.96283 99.1365 8.80043C98.9609 8.63802 98.6908 8.51539 98.3262 8.43253L97.0336 8.14915C96.321 7.98674 95.794 7.72822 95.4526 7.37358C95.1145 7.01894 94.9455 6.56984 94.9455 6.02628C94.9455 5.57552 95.0714 5.18111 95.3233 4.84304C95.5752 4.50497 95.9232 4.24148 96.3674 4.05256C96.8115 3.86032 97.3203 3.7642 97.8936 3.7642C98.7189 3.7642 99.3685 3.94318 99.8425 4.30114C100.316 4.65578 100.63 5.13139 100.782 5.72798Z" fill="#1D2939"/>
</svg>
